<svg width="40" height="32" viewBox="0 0 40 32" fill="none" xmlns="http://www.w3.org/2000/svg">
<g clipPath="url(#clip0_4412_79768)">
<path d="M19.7128 32C28.5477 32 35.709 24.8365 35.709 15.9995C35.709 7.16241 28.5477 0 19.7128 0C10.878 0 3.71777 7.16351 3.71777 16.0005C3.71777 24.8376 10.8791 32.0011 19.7139 32.0011L19.7128 32Z" fill="#392466"/>
<path d="M15.202 14.0098C15.112 14.4057 7.35741 18.0543 2.3423 17.3316C0.735664 17.1002 1.58778 15.3104 3.7274 15.3938C3.7296 15.3082 3.7274 15.1788 3.73398 15.0571C0.255319 15.1558 -0.986122 17.8449 0.329892 19.4975C0.801464 20.0898 1.30703 20.3365 1.7786 20.5822C5.79245 22.6691 14.8477 21.3411 17.7649 20.3179C17.5664 19.6993 15.6165 15.0099 15.203 14.012V14.0098H15.202Z" fill="#FFD814"/>
<path d="M12.1766 24.0114C12.1053 23.6626 11.7873 23.2404 10.4285 23.4926C6.96848 24.1342 5.15238 24.2702 3.31983 23.5332C3.10818 23.4488 3.00399 23.5475 2.92832 23.6604C2.92832 23.6604 2.91626 23.7098 2.91406 23.712C2.88555 23.8063 3.01605 23.8534 3.20907 23.962C4.39348 24.6343 6.97397 25.5248 10.8891 24.983C11.7928 24.858 12.283 24.4709 12.1766 24.0114Z" fill="#FFD814"/>
<path d="M26.8746 11.6172L14.3692 10.4284C13.7957 10.3735 13.3789 10.9592 13.6191 11.4845L18.8415 22.9108C19.0816 23.4339 19.7967 23.503 20.1312 23.0336L27.412 12.795C27.7465 12.3256 27.4471 11.672 26.8735 11.6161L26.8757 11.6183L26.8746 11.6172Z" fill="#FFD814"/>
<path d="M35.7134 15.8507C35.709 16.0152 35.7112 16.1721 35.7035 16.3058C36.2266 16.4407 36.9493 16.8246 36.8024 17.4804C36.7103 17.8971 36.1301 18.4828 34.9984 19.3173C33.1022 20.4469 29.5139 21.0205 27.4697 21.4251C27.2339 21.4723 27.1012 21.4931 27.0211 21.5129C26.8347 21.56 26.6417 21.6302 26.5495 21.8167C25.7479 23.4408 31.7028 22.7741 25.0986 26.3887C23.7212 27.1432 23.8506 28.2015 25.148 27.9197C26.6713 27.5896 28.6672 26.9524 30.6171 26.2944C32.9147 25.518 36.4262 23.6887 38.2621 22.0568C39.3686 21.0567 40.0694 19.8262 40.1297 18.8874C40.2405 17.1525 39.486 15.8102 35.7145 15.8474V15.8518L35.7134 15.8507Z" fill="#FFD814"/>
</g>
<defs>
<clipPath id="clip0_4412_79768">
<rect width="40" height="32" fill="white"/>
</clipPath>
</defs>
</svg>
